<?xml version="1.0" standalone="no"?>
<!DOCTYPE svg PUBLIC "-//W3C//DTD SVG 20010904//EN"
 "http://www.w3.org/TR/2001/REC-SVG-20010904/DTD/svg10.dtd">
<svg version="1.0" xmlns="http://www.w3.org/2000/svg"
 width="826.000000pt" height="826.000000pt" viewBox="0 0 826.000000 826.000000"
 preserveAspectRatio="xMidYMid meet">

<g transform="translate(0.000000,826.000000) scale(0.100000,-0.100000)"
fill="#000000" stroke="none">
<path d="M5381 6830 c-18 -4 -51 -16 -72 -26 -39 -17 -40 -17 -55 4 -24 34
-64 28 -138 -22 -94 -65 -142 -87 -200 -93 -59 -6 -108 13 -127 49 -10 18 -8
24 11 40 22 18 22 18 -28 18 -66 0 -147 -17 -194 -41 -36 -18 -38 -18 -38 -2
-1 40 -270 -293 -270 -334 0 -8 5 -24 12 -36 6 -12 10 -46 9 -75 -3 -86 47
-142 150 -167 15 -4 33 -20 44 -41 45 -84 124 -93 249 -29 61 31 79 36 112 31
21 -3 71 -8 109 -11 39 -3 78 -8 87 -11 25 -7 41 -67 39 -148 -1 -52 4 -85 20
-126 28 -70 41 -88 49 -67 4 12 7 12 17 2 9 -10 -10 -21 -100 -53 -108 -38
-113 -39 -152 -25 -22 8 -72 15 -111 15 -58 1 -77 -3 -102 -20 -38 -28 -48
-28 -63 1 -6 12 -22 36 -35 54 -23 30 -25 31 -51 18 -16 -8 -49 -23 -75 -34
-51 -22 -59 -40 -34 -76 7 -11 24 -55 36 -98 25 -84 63 -137 99 -137 29 0 26
12 -12 35 -21 13 -37 36 -50 70 -26 69 -36 130 -25 149 13 23 53 20 84 -7 29
-26 48 -104 39 -167 -4 -27 -1 -22 14 20 11 30 20 66 20 78 2 43 25 17 53 -59
46 -124 95 -169 182 -169 86 1 106 30 106 158 l0 89 48 22 c41 19 143 51 165
51 4 0 7 -28 7 -62 0 -38 -4 -58 -9 -50 -5 8 -10 -10 -14 -50 -7 -75 -37 -196
-74 -296 -26 -72 -26 -73 -57 -67 -17 4 -40 13 -51 21 -83 59 -132 86 -167 92
l-42 7 27 18 c15 10 27 22 27 28 0 5 -13 0 -29 -12 -19 -14 -60 -25 -127 -35
-101 -15 -129 -24 -78 -24 52 0 58 -13 29 -55 -40 -60 -32 -70 52 -70 39 0 69
3 67 6 -2 4 2 12 9 17 15 13 94 -7 134 -34 13 -8 28 -12 33 -9 17 11 11 -11
-8 -28 -23 -21 -79 -22 -150 -3 -47 12 -52 11 -52 -3 0 -9 -18 -54 -40 -101
-37 -79 -54 -160 -30 -145 6 4 10 -7 10 -24 0 -21 5 -31 15 -31 8 0 19 -9 25
-19 16 -31 12 -36 -12 -15 l-22 19 21 -35 c29 -47 87 -79 161 -86 71 -8 171
10 217 38 17 10 39 18 51 18 11 0 29 9 39 20 22 25 39 26 31 3 -5 -15 -4 -15
9 1 8 11 15 25 15 32 0 6 7 17 15 24 12 10 20 7 46 -14 17 -14 43 -26 58 -26
54 0 177 97 248 195 12 16 23 28 25 25 2 -3 20 -39 41 -80 51 -100 69 -123 90
-114 9 3 14 11 10 17 -3 6 -1 7 5 3 8 -5 6 -16 -9 -35 -23 -31 -157 -157 -257
-241 -34 -29 -59 -57 -55 -63 3 -6 1 -7 -4 -4 -12 7 -38 -19 -38 -37 0 -6 -11
-29 -25 -51 -14 -22 -35 -60 -45 -85 -11 -25 -24 -48 -30 -52 -7 -5 -6 -8 1
-8 8 0 9 -12 3 -37 -5 -21 -18 -84 -29 -141 -29 -141 -111 -387 -125 -374 -5
4 -5 2 -2 -4 9 -15 -16 -80 -42 -110 -13 -15 -20 -32 -16 -42 3 -9 3 -13 -2
-9 -9 10 -42 -70 -42 -106 -1 -16 -5 -26 -10 -23 -12 8 -24 -10 -49 -73 -26
-63 -31 -116 -7 -66 12 25 14 26 9 5 -4 -14 -18 -54 -31 -90 -13 -36 -29 -83
-34 -104 -5 -22 -17 -45 -26 -51 -9 -7 -13 -17 -10 -22 4 -6 0 -14 -8 -17 -18
-7 -16 4 27 154 19 67 33 143 38 210 13 184 146 670 251 918 51 119 140 292
149 287 3 -2 7 6 7 17 3 32 23 47 24 17 0 -13 3 -18 6 -11 6 15 -16 110 -27
117 -7 5 -29 -26 -70 -100 -122 -217 -150 -268 -150 -272 0 -21 -53 -113 -65
-113 -8 0 -15 5 -15 12 0 7 -7 5 -17 -5 -21 -18 -38 -5 -46 34 -3 13 -5 7 -3
-13 1 -21 -1 -38 -5 -38 -6 0 -11 -47 -30 -275 -31 -400 -37 -487 -32 -505 4
-14 0 -20 -11 -20 -10 0 -16 -9 -16 -24 0 -13 -9 -35 -20 -49 l-21 -26 -64 24
c-60 23 -86 21 -70 -5 3 -5 -2 -24 -11 -42 -22 -43 -19 -41 -41 -27 -15 9 -26
8 -52 -5 -21 -11 -53 -17 -89 -16 -33 1 -119 -11 -202 -30 -91 -20 -158 -29
-180 -25 -107 17 -164 14 -242 -17 -86 -33 -99 -43 -65 -52 28 -7 112 -88 133
-128 15 -28 14 -28 -18 -29 -87 -2 -159 -11 -350 -41 l-207 -33 62 -13 c116
-23 252 -40 267 -32 8 5 24 18 34 29 11 12 25 21 32 21 7 0 14 6 17 13 3 9 8
9 22 -3 9 -8 34 -22 54 -32 24 -12 28 -17 13 -14 -13 3 -47 -2 -75 -11 -102
-30 -94 -18 -99 -142 -2 -61 -7 -114 -11 -117 -3 -3 -48 -8 -99 -10 -84 -4
-101 -1 -178 27 -143 51 -153 53 -206 35 -41 -14 -147 -81 -278 -175 -63 -45
-71 -76 -13 -50 20 9 37 7 86 -10 77 -26 143 -26 251 0 47 11 110 21 142 22
31 1 55 5 52 8 -4 7 183 49 217 49 11 0 31 -7 45 -16 18 -13 65 -19 192 -25
171 -9 217 -14 832 -93 195 -25 390 -48 433 -52 51 -4 76 -11 74 -18 -47 -115
-67 -168 -72 -199 l-8 -39 -326 6 c-179 4 -363 7 -408 7 l-83 1 0 64 c0 48 3
62 13 58 7 -2 24 0 38 5 21 8 18 10 -23 10 l-48 1 0 -76 0 -77 -1315 8 -1315
7 0 -90 0 -91 109 -218 c137 -273 172 -336 168 -303 -1 18 2 24 13 21 34 -10
187 -20 214 -14 16 3 43 18 60 34 17 16 35 29 40 29 14 0 52 -46 49 -57 -3 -7
139 -11 449 -11 447 -1 452 -1 468 -22 15 -20 23 -21 440 -23 234 -2 440 -5
458 -8 18 -3 35 -2 38 2 2 4 13 6 24 4 12 -2 31 6 46 20 15 14 31 22 36 19 5
-3 15 2 22 11 12 16 13 16 19 2 4 -10 13 -14 22 -11 18 7 20 -7 3 -24 -17 -17
-8 -21 37 -20 22 1 227 2 457 2 415 1 416 1 447 24 37 27 35 27 74 -2 31 -23
40 -24 222 -27 105 -2 428 -3 720 -2 400 1 531 -1 537 -10 4 -7 8 130 8 303 1
371 11 577 40 778 51 355 176 894 284 1227 85 262 99 326 100 440 1 120 -21
203 -60 234 -52 41 -188 21 -296 -43 -108 -63 -154 -133 -279 -421 -23 -55
-44 -102 -46 -104 -9 -13 -9 14 3 99 18 138 18 401 -1 475 -23 89 -62 158
-124 221 -34 35 -51 59 -43 61 33 12 107 72 134 109 16 23 32 60 35 83 5 39 3
44 -38 84 -28 27 -70 52 -117 70 -39 16 -72 31 -72 33 0 3 7 16 16 30 25 38
14 112 -22 142 -24 21 -35 24 -76 19 -32 -4 -60 -1 -85 9 -70 30 -273 29 -375
-2 -20 -6 -34 23 -74 156 -26 85 -26 91 -10 109 11 12 14 21 7 26 -26 15 -10
77 48 188 85 163 102 219 109 364 4 96 1 138 -12 193 l-17 71 30 35 c36 40 38
46 14 42 -12 -2 -20 9 -30 41 -7 24 -20 52 -29 62 -15 17 -13 20 25 57 23 21
41 46 41 55 0 21 1 21 -40 1 -37 -19 -85 -9 -130 25 -20 16 -22 21 -11 35 12
14 9 16 -22 16 -34 0 -40 5 -80 66 -40 61 -43 70 -34 99 8 27 6 41 -13 80
l-22 46 -16 -23 c-8 -13 -17 -25 -19 -27 -2 -3 -13 5 -26 16 -45 41 -114 58
-176 43z m333 -981 c39 -31 59 -77 59 -136 0 -42 -10 -72 -48 -153 -42 -86
-55 -105 -94 -131 -25 -16 -56 -32 -69 -36 -31 -7 -102 3 -116 17 -7 7 -10 50
-9 118 2 152 9 189 36 198 21 7 21 7 2 15 -19 7 -19 8 -1 8 11 1 47 28 82 61
70 68 109 77 158 39z m-1106 -167 c3 -9 -2 -13 -14 -10 -9 1 -19 9 -22 16 -3
9 2 13 14 10 9 -1 19 -9 22 -16z m677 -2 c-3 -5 -12 -10 -18 -10 -7 0 -6 4 3
10 19 12 23 12 15 0z m-388 -67 c14 -9 29 -27 34 -40 12 -33 11 -160 -1 -184
-15 -27 -79 -26 -114 2 -44 35 -107 186 -93 223 12 30 128 29 174 -1z m901
-492 c9 -20 15 -42 13 -50 -1 -7 2 -10 7 -7 9 6 42 -35 42 -51 0 -4 -4 -1 -10
7 -19 30 -19 2 0 -36 16 -31 19 -33 14 -11 -9 41 3 32 26 -19 22 -51 28 -91 9
-64 -8 12 -9 9 -5 -11 5 -21 -1 -31 -33 -57 -32 -26 -38 -28 -34 -12 3 11 9
17 14 15 11 -7 32 33 24 45 -3 6 -15 10 -25 10 -11 0 -31 5 -45 12 -23 10 -25
16 -25 80 0 37 6 77 12 88 11 16 10 28 -3 65 -19 52 -4 49 19 -4z m6 -307 c3
-8 2 -12 -4 -9 -6 3 -10 10 -10 16 0 14 7 11 14 -7z m6 -34 c0 -5 -5 -10 -11
-10 -5 0 -7 5 -4 10 3 6 8 10 11 10 2 0 4 -4 4 -10z m-390 -390 c0 -5 -5 -10
-11 -10 -5 0 -7 5 -4 10 3 6 8 10 11 10 2 0 4 -4 4 -10z m-196 -1246 c3 -8 2
-12 -4 -9 -6 3 -10 10 -10 16 0 14 7 11 14 -7z m-54 -34 c0 -5 -4 -10 -10 -10
-5 0 -10 5 -10 10 0 6 5 10 10 10 6 0 10 -4 10 -10z m-26 -69 c-6 -6 -34 20
-34 32 0 6 8 2 19 -9 10 -10 17 -21 15 -23z m-104 -32 c-7 -11 -14 -18 -17
-15 -3 3 0 12 7 21 18 21 23 19 10 -6z m60 6 c0 -8 -4 -15 -9 -15 -13 0 -22
16 -14 24 11 11 23 6 23 -9z m-40 -35 c0 -13 -5 -18 -15 -14 -12 5 -13 10 -4
20 15 19 19 18 19 -6z m-54 -32 c-12 -7 -21 -7 -28 0 -6 6 0 10 18 10 23 0 24
-2 10 -10z m-1106 -128 c0 -5 -7 -10 -15 -10 -8 0 -15 5 -15 10 0 6 7 10 15
10 8 0 15 -4 15 -10z m71 -28 c6 9 9 6 9 -11 0 -24 0 -24 85 -17 47 3 89 7 93
7 4 1 34 1 67 -1 l60 -1 -40 -18 c-22 -10 -61 -23 -88 -30 -43 -10 -50 -9 -76
10 -26 19 -33 20 -81 10 -47 -10 -54 -9 -66 6 -7 10 -9 19 -4 21 4 2 5 13 2
25 -5 21 -5 21 13 4 14 -15 20 -16 26 -5z m419 -22 c12 -8 11 -10 -7 -10 -13
0 -23 5 -23 10 0 13 11 13 30 0z m-1058 -254 c9 0 15 -3 12 -7 -6 -10 168 -69
204 -69 38 0 -7 -14 -130 -39 -73 -16 -169 -36 -214 -46 -71 -16 -86 -16 -122
-4 -23 8 -43 19 -44 24 -4 19 95 85 122 82 14 -2 19 -2 13 0 -25 9 -12 24 40
49 35 16 60 22 77 18 14 -4 33 -7 42 -8z m-958 -1172 c3 -8 10 -12 16 -9 5 3
10 2 10 -3 0 -16 -28 -22 -38 -9 -20 27 -23 37 -9 37 8 0 18 -7 21 -16z m3071
-70 c19 7 19 -1 -1 -21 -14 -14 -16 -14 -29 3 -19 25 -19 40 0 24 8 -7 22 -10
30 -6z"/>
<path d="M5618 5791 c-14 -11 -41 -44 -61 -73 -34 -51 -36 -57 -39 -158 l-3
-105 26 -3 c57 -7 149 146 157 260 7 95 -23 124 -80 79z"/>
<path d="M5870 4930 c0 -5 5 -10 11 -10 5 0 7 5 4 10 -3 6 -8 10 -11 10 -2 0
-4 -4 -4 -10z"/>
<path d="M3000 5890 c-14 -4 -117 -37 -230 -73 -262 -83 -360 -114 -953 -297
-269 -82 -505 -159 -525 -169 -49 -25 -80 -60 -92 -102 -6 -19 -11 -199 -12
-404 -1 -203 -3 -353 -5 -332 -5 42 -22 41 -25 -1 -1 -15 -5 25 -8 88 -3 63
-7 -293 -8 -791 -2 -984 -6 -919 48 -919 15 0 323 115 428 160 40 17 43 11 17
-33 -25 -43 -35 -120 -17 -131 11 -7 427 -98 577 -126 l120 -23 249 92 c335
124 327 121 324 139 -3 17 -83 37 -465 117 l-183 38 0 28 c0 15 17 60 38 100
33 65 42 75 82 91 25 9 142 55 260 101 118 47 271 106 339 133 l123 48 -6 66
c-3 36 -6 487 -7 1002 -2 773 0 940 11 953 33 40 63 45 261 45 l192 0 -7 -30
c-7 -36 9 -120 28 -145 11 -15 17 -16 49 -6 21 7 37 19 37 26 0 34 -46 131
-74 157 l-30 28 -194 0 c-149 0 -201 -3 -229 -15 -19 -8 -39 -15 -44 -15 -5 0
-9 45 -9 99 0 81 -3 100 -16 105 -9 3 -16 6 -17 5 -1 0 -13 -4 -27 -9z m-80
-149 c0 -23 -14 -41 -31 -41 -19 0 -27 29 -12 43 10 10 43 8 43 -2z m-114
-126 c18 -14 18 -14 -4 -15 -13 0 -21 4 -18 9 4 5 0 12 -6 14 -7 3 -8 6 -2 6
5 1 19 -6 30 -14z m-101 -15 c-3 -5 -10 -10 -16 -10 -5 0 -9 5 -9 10 0 6 7 10
16 10 8 0 12 -4 9 -10z m-56 -51 c1 -48 -1 -51 -34 -65 -19 -8 -45 -15 -57
-17 -20 -2 -23 2 -20 26 2 15 1 27 -1 27 -3 0 -254 -83 -558 -185 -304 -102
-555 -185 -557 -185 -2 0 -2 10 0 22 3 19 69 43 583 215 319 107 591 198 605
203 14 4 28 9 31 9 4 1 7 -22 8 -50z m92 27 c-8 -10 -9 -16 -1 -21 20 -13 10
-25 -16 -19 -18 5 -25 3 -21 -3 4 -6 0 -13 -8 -17 -17 -6 -21 19 -5 29 6 4 8
11 5 16 -10 15 5 29 32 29 21 0 23 -3 14 -14z m96 -8 c-3 -8 -6 -5 -6 6 -1 11
2 17 5 13 3 -3 4 -12 1 -19z m88 -48 c8 -13 -42 -36 -95 -44 l-45 -6 65 29
c36 16 66 30 67 30 1 1 4 -3 8 -9z m5 -39 c0 -9 -54 -31 -74 -31 -11 1 53 39
67 40 4 0 7 -4 7 -9z m-155 -21 c-3 -5 -13 -10 -21 -10 -8 0 -12 5 -9 10 3 6
13 10 21 10 8 0 12 -4 9 -10z m134 -34 c-17 -16 -31 -21 -44 -16 -17 6 -15 10
20 28 48 24 58 20 24 -12z m-261 -18 c-3 -7 -69 -35 -149 -63 -79 -29 -151
-54 -159 -57 -37 -14 -124 -38 -137 -38 -8 0 -12 -4 -9 -9 4 -5 -4 -7 -16 -3
-15 4 -19 2 -13 -8 5 -8 3 -11 -5 -8 -8 2 -93 -24 -189 -58 -106 -38 -180 -59
-185 -54 -11 11 -10 12 284 111 267 89 503 171 540 187 34 14 42 14 38 0z
m129 6 c-3 -3 -12 -4 -19 -1 -8 3 -5 6 6 6 11 1 17 -2 13 -5z m-37 -8 c0 -2
-13 -9 -30 -15 -24 -8 -30 -7 -30 5 0 9 10 14 30 14 17 0 30 -2 30 -4z m190
-9 c0 -14 -76 -45 -86 -35 -5 5 63 46 79 47 4 1 7 -5 7 -12z m-282 -29 c-3 -7
-39 -25 -82 -39 -42 -14 -73 -29 -69 -34 5 -4 0 -5 -10 -2 -20 8 -103 -26
-109 -44 -2 -7 -9 -5 -17 5 -11 13 -10 17 5 22 22 7 220 82 249 94 29 12 37
12 33 -2z m-388 -18 c0 -12 -43 -30 -72 -30 -27 0 -16 12 25 27 41 15 47 15
47 3z m-750 -34 c0 -17 -24 -38 -33 -29 -15 15 -6 43 13 43 11 0 20 -6 20 -14z
m650 1 c0 -17 -61 -40 -74 -27 -6 6 3 15 25 24 42 19 49 19 49 3z m490 3 c0
-11 -53 -40 -75 -40 -8 0 -15 -4 -15 -10 0 -13 1 -13 45 6 20 8 40 12 43 9 10
-10 -16 -22 -120 -56 -54 -17 -101 -36 -104 -40 -3 -5 -12 -9 -21 -9 -8 0 -29
-6 -46 -14 -48 -21 -98 -36 -120 -36 -20 0 -20 0 1 20 12 12 22 22 22 24 0 4
-130 -41 -137 -48 -4 -3 -15 -6 -25 -6 -42 0 -11 19 104 60 67 25 125 47 130
48 4 2 8 -3 8 -11 0 -9 -14 -17 -35 -21 -21 -4 -35 -13 -35 -21 0 -20 19 -19
26 0 7 16 34 21 34 5 0 -5 7 -7 16 -3 8 3 13 12 10 20 -5 11 -2 11 16 2 18
-10 24 -8 35 7 7 10 13 15 13 11 0 -13 124 38 128 53 4 12 2 13 -9 4 -17 -13
-89 -34 -115 -34 -18 1 -18 1 1 13 21 13 191 73 213 76 6 0 12 -3 12 -9z m280
-19 c0 -14 -13 -24 -51 -36 -43 -15 -73 -15 -58 -1 3 3 91 49 107 55 1 1 2 -8
2 -18z m-230 -1 c0 -5 -4 -10 -10 -10 -5 0 -10 5 -10 10 0 6 5 10 10 10 6 0
10 -4 10 -10z m-630 -18 c0 -11 -67 -32 -75 -24 -7 8 35 31 58 32 9 0 17 -4
17 -8z m-720 -70 c0 -64 -2 -70 -25 -80 -50 -23 -55 -18 -55 57 0 68 0 68 33
79 17 5 35 10 40 11 4 1 7 -30 7 -67z m628 42 c-4 -19 -75 -46 -84 -32 -8 12
-5 15 41 31 22 8 41 15 43 16 2 0 2 -6 0 -15z m362 8 c0 -7 -95 -54 -119 -58
-21 -4 -205 -68 -211 -74 -3 -3 -13 -6 -24 -8 -10 -2 -30 -8 -45 -14 -14 -6
-29 -11 -33 -10 -4 1 -23 -5 -42 -13 -38 -16 -70 -20 -62 -7 2 4 76 32 164 62
88 30 158 59 155 64 -4 5 -1 6 5 2 12 -7 51 5 147 43 56 22 65 24 65 13z m455
-12 c3 -5 1 -10 -4 -10 -6 0 -11 5 -11 10 0 6 2 10 4 10 3 0 8 -4 11 -10z
m135 1 c0 -12 -30 -25 -68 -29 -7 -1 -11 -6 -8 -10 3 -5 -9 -9 -26 -9 -28 0
-29 1 -12 14 10 7 24 13 31 13 7 0 13 4 13 9 0 9 21 16 58 20 6 0 12 -3 12 -8z
m-530 -21 c0 -5 -10 -10 -22 -10 -19 0 -20 2 -8 10 19 13 30 13 30 0z m336 1
c-8 -12 -46 -21 -46 -11 0 5 8 11 18 13 29 8 33 7 28 -2z m-856 -11 c0 -5 -16
-17 -36 -25 -44 -18 -44 -18 -44 -2 0 8 17 18 38 24 20 6 38 11 40 12 1 0 2
-3 2 -9z m1048 -11 c-4 -13 -144 -62 -161 -56 -6 2 25 17 69 34 91 36 97 37
92 22z m-270 -10 c-2 -7 -143 -60 -313 -119 -171 -59 -381 -133 -468 -164 -87
-31 -164 -53 -169 -50 -21 13 28 32 647 245 142 50 261 92 264 94 9 10 42 4
39 -6z m-870 -11 c-3 -7 -19 -14 -36 -16 -18 -2 -32 -7 -32 -13 0 -5 -5 -9
-11 -9 -22 0 -2 23 31 35 47 17 52 17 48 3z m-381 -32 c-4 -9 -13 -16 -22 -16
-18 0 -19 5 -4 32 13 24 35 9 26 -16z m1343 26 c0 -4 -13 -13 -30 -19 -16 -6
-30 -8 -30 -4 0 4 12 12 28 18 15 6 28 11 30 12 1 1 2 -3 2 -7z m186 -21 c-8
-12 -166 -64 -173 -57 -10 9 -3 13 82 44 75 28 102 32 91 13z m-280 -10 c-3
-4 -23 -13 -45 -21 -23 -7 -41 -17 -41 -22 0 -4 -10 -8 -23 -8 -12 0 -67 -16
-122 -35 -55 -20 -138 -49 -185 -65 -47 -16 -175 -61 -285 -101 -222 -79 -245
-86 -245 -71 0 12 3 13 160 67 176 61 459 161 495 175 17 6 37 13 45 15 8 2
65 22 125 43 102 37 133 42 121 23z m-986 -9 c0 -5 -28 -17 -61 -27 -34 -11
-57 -21 -51 -23 6 -2 31 4 57 12 54 19 55 19 55 6 0 -16 -46 -30 -148 -46 -51
-7 -102 -19 -113 -25 -20 -10 -20 -11 -3 -30 16 -17 16 -22 4 -29 -19 -13 -40
-13 -40 0 0 5 8 14 18 19 16 10 16 10 0 11 -11 0 -18 8 -18 19 0 15 13 23 58
36 31 8 91 31 132 50 74 34 110 43 110 27z m528 -18 c-2 -9 -31 -25 -71 -39
-44 -16 -67 -20 -64 -12 2 7 28 21 58 31 30 11 56 23 57 28 6 15 24 8 20 -8z
m-137 -9 c1 -5 -46 -26 -104 -46 -57 -20 -108 -38 -113 -41 -5 -3 -31 -13 -59
-21 -27 -8 -58 -18 -67 -22 -14 -6 -18 -2 -18 15 0 11 4 19 9 16 8 -6 87 16
126 35 46 22 201 77 213 76 7 -1 13 -6 13 -12z m-327 -2 c4 -4 13 -8 19 -8 28
0 19 -19 -15 -31 -37 -12 -38 -12 -38 10 0 32 17 46 34 29z m917 -8 c1 -5 -93
-42 -208 -81 -114 -40 -287 -100 -383 -134 -172 -61 -343 -120 -347 -120 -2 0
-3 6 -3 14 0 13 95 49 615 228 110 38 223 77 250 87 54 20 76 22 76 6z m92
-16 c-14 -14 -77 -24 -69 -11 4 7 16 12 26 12 10 0 22 5 25 10 4 6 11 7 17 4
5 -4 6 -10 1 -15z m-695 -16 c-2 -9 -28 -26 -63 -39 -72 -27 -85 -29 -85 -9 0
8 9 15 19 15 11 0 23 5 26 10 3 6 14 10 23 10 9 0 28 7 42 14 34 19 42 19 38
-1z m-380 -5 c-2 -6 -23 -17 -47 -24 -52 -15 -53 5 0 23 44 15 52 16 47 1z
m112 -2 c0 -11 -59 -33 -71 -25 -9 5 -2 11 22 17 41 12 49 13 49 8z m880 -5
c0 -5 -20 -14 -45 -20 -25 -6 -43 -16 -40 -21 3 -6 -1 -7 -9 -4 -25 10 -19 19
27 36 50 19 67 21 67 9z m-4 -60 c-8 -13 -36 -15 -36 -3 0 4 5 13 12 20 14 14
34 0 24 -17z m-776 4 c0 -6 -33 -22 -72 -35 -99 -33 -98 -33 -98 -18 0 8 30
24 73 39 81 28 97 31 97 14z m640 11 c0 -11 -19 -15 -25 -6 -3 5 1 10 9 10 9
0 16 -2 16 -4z m90 -25 c0 -5 -9 -11 -20 -14 -22 -6 -26 3 -8 21 11 11 28 7
28 -7z m-125 -1 c-3 -5 -13 -10 -21 -10 -8 0 -14 5 -14 10 0 6 9 10 21 10 11
0 17 -4 14 -10z m-815 -9 c0 -11 -289 -105 -297 -97 -9 9 -8 10 137 58 145 49
160 53 160 39z m755 -10 c-9 -9 -199 -80 -255 -96 -57 -16 0 15 90 50 52 20
104 40 115 45 28 12 61 12 50 1z m310 0 c-3 -5 -19 -12 -35 -16 -17 -4 -30
-11 -30 -16 0 -6 -4 -8 -9 -4 -5 3 -40 -6 -77 -20 -70 -26 -95 -31 -78 -16 13
13 195 80 217 81 10 0 16 -4 12 -9z m-1069 -46 c-19 -15 -146 -48 -153 -41
-12 12 11 24 64 35 32 6 65 15 73 21 21 13 36 -1 16 -15z m1064 6 c0 -10 -50
-25 -58 -17 -3 3 6 10 19 15 31 13 39 13 39 2z m-75 -29 c-10 -9 -226 -92
-238 -92 -4 0 -7 4 -7 10 0 5 17 14 38 19 20 6 69 24 107 41 66 28 120 40 100
22z m83 -14 c-2 -6 -105 -46 -229 -88 -123 -43 -275 -97 -337 -120 -63 -23
-116 -39 -119 -36 -9 9 -9 9 137 60 145 50 262 93 430 155 120 44 123 45 118
29z m-1238 -7 c0 -4 -33 -20 -74 -35 -83 -29 -86 -30 -86 -17 0 5 33 21 73 34
83 29 87 30 87 18z m980 0 c0 -5 -12 -11 -27 -15 -16 -3 -39 -9 -52 -12 -17
-5 -22 -4 -17 4 12 20 96 40 96 23z m-792 -22 c-5 -14 -39 -27 -190 -74 -65
-20 -118 -40 -118 -44 0 -8 68 11 227 64 42 13 75 19 79 14 3 -5 -1 -11 -8
-14 -244 -88 -306 -106 -309 -87 -9 54 -11 52 141 102 152 50 184 57 178 39z
m382 -20 c-54 -25 -100 -35 -100 -23 0 10 93 41 125 42 11 0 0 -8 -25 -19z
m830 7 c0 -3 -4 -8 -10 -11 -5 -3 -10 -1 -10 4 0 6 5 11 10 11 6 0 10 -2 10
-4z m-50 -25 c0 -9 -252 -102 -259 -95 -8 8 9 16 125 58 134 49 134 49 134 37z
m-460 -10 c0 -5 -13 -14 -30 -20 -32 -11 -41 2 -12 18 21 13 42 14 42 2z
m-444 -10 c-8 -13 -66 -32 -66 -21 0 4 12 13 28 18 35 13 44 14 38 3z m-258
-37 c-10 -9 -318 -114 -336 -114 -15 0 -15 1 -1 16 22 21 322 123 333 113 5
-5 7 -11 4 -15z m567 -4 c-11 -5 -63 -25 -116 -45 -91 -33 -130 -43 -116 -29
11 11 212 83 232 83 l20 0 -20 -9z m-295 -99 c0 -10 -171 -74 -178 -66 -3 3
-3 6 -1 8 3 3 118 45 177 66 1 1 2 -3 2 -8z m860 -5 c0 -8 -4 -17 -9 -20 -10
-7 -23 19 -14 28 11 11 23 6 23 -8z m-52 -21 c-7 -8 -636 -238 -763 -280 -95
-32 -120 -36 -99 -16 5 5 92 40 194 77 102 37 291 107 420 155 132 48 239 82
244 78 5 -5 7 -11 4 -14z m102 0 c0 -8 -4 -15 -10 -15 -5 0 -10 7 -10 15 0 8
5 15 10 15 6 0 10 -7 10 -15z m-910 -23 c0 -9 -130 -55 -138 -48 -5 5 20 17
93 43 38 14 45 15 45 5z m-360 -14 c0 -7 -17 -21 -38 -30 -20 -10 -27 -15 -14
-12 20 5 22 2 22 -33 0 -39 -1 -40 -56 -57 -31 -10 -54 -19 -52 -22 3 -2 26 3
52 12 42 15 69 14 54 -2 -10 -9 -162 -64 -180 -64 -13 0 -16 11 -15 71 l2 71
110 38 c61 21 111 39 113 39 1 1 2 -5 2 -11z m1155 -16 c-12 -11 -158 -62
-176 -62 -25 0 5 16 79 41 81 28 113 35 97 21z m60 -22 c-3 -5 -10 -10 -16
-10 -5 0 -9 5 -9 10 0 6 7 10 16 10 8 0 12 -4 9 -10z m95 -25 c0 -8 -7 -15
-15 -15 -16 0 -20 12 -8 23 11 12 23 8 23 -8z m-160 -9 c0 -16 5 -13 -155 -71
-140 -50 -464 -170 -615 -227 -259 -99 -292 -109 -288 -91 2 12 60 37 203 89
110 39 232 84 270 99 92 37 568 213 578 214 4 1 7 -5 7 -13z m-210 -25 c-8 -5
-28 -11 -45 -15 l-30 -6 25 15 c14 8 34 14 45 14 16 0 17 -1 5 -8z m-85 -31
c-5 -8 -72 -32 -97 -34 -3 -1 -10 -4 -14 -8 -4 -5 -15 -8 -25 -8 -10 0 -22 -7
-26 -15 -5 -7 -33 -21 -63 -28 -30 -8 -79 -24 -108 -36 -60 -24 -62 -24 -62
-12 0 4 30 18 68 31 37 12 76 27 87 34 27 15 217 84 233 85 7 1 10 -3 7 -9z
m365 -4 c0 -3 -4 -8 -10 -11 -5 -3 -10 -1 -10 4 0 6 5 11 10 11 6 0 10 -2 10
-4z m-60 -26 c0 -5 -17 -17 -37 -26 -54 -23 -396 -152 -451 -170 -26 -9 -72
-27 -102 -40 -56 -24 -242 -93 -455 -169 -66 -24 -145 -53 -175 -64 -65 -25
-60 -24 -60 -6 0 9 9 15 25 15 14 0 25 5 25 12 0 6 3 9 6 5 4 -3 18 0 33 7 33
17 150 62 686 261 231 86 436 162 455 170 43 17 50 18 50 5z m-1190 -19 c0 -5
-13 -14 -30 -20 -16 -6 -44 -16 -60 -22 -48 -18 -29 -21 26 -4 57 17 64 18 64
7 0 -5 -17 -16 -37 -25 -86 -35 -154 -59 -158 -56 -7 8 9 26 40 43 17 10 21
14 10 11 -52 -18 -57 -18 -54 0 3 12 30 26 89 46 92 30 110 34 110 20z m1250
-21 c0 -5 -4 -10 -10 -10 -5 0 -10 5 -10 10 0 6 5 10 10 10 6 0 10 -4 10 -10z
m-60 -7 c0 -8 -103 -53 -121 -53 -24 0 0 24 41 41 48 19 80 24 80 12z m-1570
-54 c0 -11 -4 -17 -10 -14 -5 3 -10 -3 -10 -14 0 -11 -4 -23 -10 -26 -11 -7
-14 34 -4 59 9 23 34 20 34 -5z m1570 2 c0 -10 -1 -10 -112 -52 -79 -29 -121
-23 -51 7 116 51 163 63 163 45z m-1196 -15 c-5 -14 -142 -66 -172 -66 -21 0
-13 28 11 33 12 4 24 6 27 6 3 0 30 9 60 20 67 24 81 25 74 7z m481 -17 c-4
-5 -12 -9 -20 -9 -7 0 -61 -19 -120 -41 -58 -23 -109 -39 -112 -35 -9 8 -12 7
122 58 113 43 143 49 130 27z m525 11 c-8 -5 -46 -22 -85 -36 -38 -15 -83 -33
-100 -40 -39 -17 -115 -44 -126 -44 -5 0 -9 4 -9 9 0 4 55 27 123 51 67 23
133 48 147 56 30 16 74 20 50 4z m285 -19 c3 -5 1 -12 -5 -16 -5 -3 -10 1 -10
9 0 18 6 21 15 7z m-1291 -21 c-12 -12 -148 -60 -170 -60 -38 0 -2 25 66 45
84 25 119 30 104 15z m1246 -10 c0 -5 -7 -10 -15 -10 -8 0 -15 5 -15 10 0 6 7
10 15 10 8 0 15 -4 15 -10z m-284 -15 c-11 -8 -27 -15 -35 -15 -13 1 -12 4 3
15 11 8 27 15 35 15 13 -1 12 -4 -3 -15z m234 -9 c0 -8 -6 -16 -12 -19 -7 -2
-166 -61 -353 -131 -187 -70 -385 -145 -440 -166 -55 -21 -116 -43 -135 -48
-19 -5 -43 -13 -52 -17 -10 -4 -18 -3 -18 2 0 5 25 17 55 27 33 10 55 23 55
32 0 7 6 15 13 15 6 1 23 3 37 4 20 3 732 269 815 305 29 13 35 12 35 -4z
m-1190 -4 c0 -11 -154 -72 -182 -72 -5 0 -8 5 -6 12 2 6 42 24 89 39 98 31 99
32 99 21z m207 -28 c-3 -3 -12 -4 -19 -1 -8 3 -5 6 6 6 11 1 17 -2 13 -5z
m631 -5 c-4 -13 -133 -68 -160 -68 -40 -2 -2 29 65 53 82 28 100 31 95 15z
m-844 -10 c-3 -6 -20 -18 -38 -26 -30 -14 -9 -12 27 2 12 5 17 2 17 -9 0 -10
-15 -20 -45 -27 -25 -6 -48 -15 -51 -20 -8 -13 9 -11 51 7 20 8 39 13 42 10
11 -10 -9 -24 -52 -36 -46 -13 -69 -30 -40 -30 8 0 32 7 52 15 43 18 43 18 43
1 0 -8 -36 -26 -88 -45 -101 -36 -102 -36 -102 -16 0 9 12 18 30 22 17 3 33
10 37 16 4 6 -1 8 -13 5 -10 -3 -25 -7 -33 -9 -7 -2 -15 1 -18 8 -3 7 12 16
36 23 23 6 41 13 41 16 0 6 -34 0 -64 -12 -25 -10 -19 21 7 35 l22 11 -24 -6
c-17 -4 -22 -2 -19 7 3 8 38 26 79 40 83 29 114 35 103 18z m171 1 c-3 -5 -11
-10 -16 -10 -6 0 -7 5 -4 10 3 6 11 10 16 10 6 0 7 -4 4 -10z m481 -15 c-11
-8 -26 -15 -33 -15 -7 0 -27 -9 -45 -20 -36 -22 -62 -26 -56 -9 2 6 33 21 68
33 79 28 91 30 66 11z m589 -15 c-3 -5 -12 -10 -18 -10 -7 0 -6 4 3 10 19 12
23 12 15 0z m-55 -19 c0 -5 -21 -17 -47 -27 -27 -9 -118 -44 -203 -77 -85 -33
-177 -68 -205 -77 -27 -10 -140 -53 -250 -95 -348 -135 -408 -156 -419 -145
-6 6 -3 12 10 16 31 11 226 84 264 99 19 8 197 75 395 150 198 75 376 142 395
150 42 17 60 18 60 6z m-695 -30 c-3 -6 -13 -11 -21 -11 -32 0 -336 -117 -342
-132 -6 -14 -32 -9 -32 6 0 8 27 23 63 36 34 12 87 31 117 42 143 52 215 77
218 73 2 -2 1 -8 -3 -14z m-395 -11 c0 -5 -4 -10 -10 -10 -5 0 -10 5 -10 10 0
6 5 10 10 10 6 0 10 -4 10 -10z m1090 -9 c0 -5 -17 -15 -37 -21 -21 -7 -98
-35 -171 -62 -74 -27 -136 -47 -139 -44 -9 8 -11 7 112 54 61 23 133 50 160
61 58 22 75 25 75 12z m-712 -33 c-5 -13 -168 -72 -176 -63 -11 11 18 29 85
51 77 27 96 29 91 12z m852 -13 c0 -8 -4 -15 -10 -15 -5 0 -10 7 -10 15 0 8 5
15 10 15 6 0 10 -7 10 -15z m-90 -35 c0 -5 -4 -10 -10 -10 -5 0 -10 5 -10 10
0 6 5 10 10 10 6 0 10 -4 10 -10z m-45 -29 c-11 -10 -160 -71 -310 -127 -111
-41 -493 -187 -547 -209 -12 -5 -18 -2 -18 8 0 9 35 27 98 50 87 32 536 202
687 262 63 24 106 32 90 16z m-1115 -15 c0 -2 -7 -6 -15 -10 -8 -3 -15 -1 -15
4 0 6 7 10 15 10 8 0 15 -2 15 -4z m748 -7 c-4 -13 -159 -72 -166 -64 -3 3 -3
7 -1 9 3 4 153 62 167 65 2 1 2 -4 0 -10z m-798 -14 c-14 -17 -30 -20 -30 -6
0 5 8 12 18 14 9 3 19 5 21 6 2 0 -2 -6 -9 -14z m1335 -15 c7 -23 -1 -40 -20
-40 -9 0 -13 11 -13 30 1 34 23 41 33 10z m-1375 2 c0 -5 -16 -16 -35 -25 -28
-13 -35 -14 -35 -3 0 7 15 18 33 24 17 5 33 10 35 11 1 1 2 -3 2 -7z m1257
-19 c-3 -3 -11 -2 -17 2 -9 6 -9 10 1 16 14 8 27 -7 16 -18z m-47 8 c0 -11
-104 -57 -270 -119 -74 -27 -258 -98 -409 -156 -151 -59 -279 -105 -284 -103
-16 5 197 89 733 291 96 37 186 73 200 81 30 17 30 17 30 6z m-1290 -16 c0
-14 -48 -45 -70 -45 -5 0 -10 8 -10 18 0 13 12 22 38 29 20 6 38 11 40 12 1 0
2 -6 2 -14z m1484 -57 c-9 -14 -24 2 -24 25 1 21 1 21 15 3 8 -10 12 -23 9
-28z m-789 23 c-6 -5 -62 -30 -125 -54 -63 -25 -139 -54 -167 -66 -29 -11 -53
-17 -53 -12 0 7 179 82 320 134 25 9 35 8 25 -2z m-695 -15 c0 -2 -18 -13 -40
-25 -39 -20 -40 -20 -40 -2 0 12 9 21 23 24 32 6 57 8 57 3z m1275 -5 c-12
-12 -339 -141 -356 -141 -26 0 8 17 169 81 163 65 206 79 187 60z m235 -47 c0
-8 -4 -14 -9 -14 -11 0 -22 26 -14 34 9 9 23 -3 23 -20z m-1365 7 c-6 -5 -53
-24 -105 -44 -52 -19 -104 -38 -115 -42 -18 -7 -18 -6 -5 8 8 9 60 31 115 51
106 37 125 42 110 27z m1119 -20 c-5 -4 -128 -54 -274 -110 -146 -57 -271
-105 -277 -108 -7 -3 -13 -1 -13 4 0 5 73 38 163 73 89 35 216 85 282 111 110
43 144 52 119 30z m136 -126 c0 -14 -4 -25 -9 -25 -12 0 -19 21 -13 38 8 21
22 13 22 -13z m-1280 -14 c0 -4 -21 -16 -47 -26 -27 -10 -55 -24 -64 -31 -18
-16 -49 -19 -49 -4 0 9 37 28 110 56 42 16 50 17 50 5z m1475 -21 c3 -5 1 -10
-4 -10 -6 0 -11 5 -11 10 0 6 2 10 4 10 3 0 8 -4 11 -10z m-1651 -55 c-4 -8
-10 -12 -15 -9 -14 8 -10 24 6 24 9 0 12 -6 9 -15z m271 5 c-3 -5 -11 -10 -16
-10 -6 0 -7 5 -4 10 3 6 11 10 16 10 6 0 7 -4 4 -10z m-115 -45 c0 -2 -9 -9
-20 -15 -16 -9 -20 -8 -20 5 0 8 9 15 20 15 11 0 20 -2 20 -5z m-22 -107 c-3
-7 -36 -25 -74 -40 -80 -31 -84 -32 -84 -15 0 6 33 24 73 39 85 31 90 32 85
16z m-8 -45 c0 -11 -140 -66 -147 -59 -9 8 -6 10 67 39 73 28 80 30 80 20z
m-5 -42 c-15 -14 -138 -62 -143 -56 -8 8 2 14 64 39 63 26 95 32 79 17z m5
-39 c0 -7 -119 -52 -139 -52 -19 0 -12 20 7 21 9 0 35 9 57 19 42 20 75 25 75
12z m-40 -82 c0 -9 -62 -40 -81 -40 -21 0 -6 22 24 35 38 17 57 19 57 5z"/>
<path d="M1405 4430 c-13 -5 -14 -9 -5 -9 8 0 24 4 35 9 13 5 14 9 5 9 -8 0
-24 -4 -35 -9z"/>
<path d="M4723 5759 c-37 -11 -45 -21 -37 -43 5 -12 24 -15 112 -13 59 1 134
-2 167 -6 55 -7 59 -6 40 8 -50 40 -222 73 -282 54z"/>
<path d="M4813 5093 c9 -2 25 -2 35 0 9 3 1 5 -18 5 -19 0 -27 -2 -17 -5z"/>
<path d="M4888 5083 c7 -3 16 -2 19 1 4 3 -2 6 -13 5 -11 0 -14 -3 -6 -6z"/>
<path d="M5259 4633 c-13 -16 -12 -17 4 -4 9 7 17 15 17 17 0 8 -8 3 -21 -13z"/>
<path d="M5219 4593 c-13 -16 -12 -17 4 -4 9 7 17 15 17 17 0 8 -8 3 -21 -13z"/>
<path d="M5185 4560 c-3 -6 1 -7 9 -4 18 7 21 14 7 14 -6 0 -13 -4 -16 -10z"/>
<path d="M4991 4234 c0 -11 3 -14 6 -6 3 7 2 16 -1 19 -3 4 -6 -2 -5 -13z"/>
<path d="M3503 4020 c0 -25 2 -35 4 -22 2 12 2 32 0 45 -2 12 -4 2 -4 -23z"/>
<path d="M3785 4028 c-14 -18 -36 -45 -49 -60 -13 -14 -27 -36 -31 -47 -7 -23
-21 -28 -27 -9 -5 13 -48 19 -48 6 0 -5 -4 -6 -10 -3 -5 3 -10 -2 -10 -12 0
-11 -5 -24 -10 -29 -11 -11 33 -11 63 1 14 6 17 2 17 -21 0 -23 -2 -26 -10
-14 -8 12 -10 11 -10 -7 0 -13 5 -23 10 -23 6 0 10 -9 10 -20 0 -11 -4 -20
-10 -20 -5 0 -10 9 -10 20 0 18 -6 20 -45 18 -27 -2 -45 -8 -45 -15 0 -7 -12
-16 -27 -19 -16 -4 -33 -11 -39 -16 -8 -6 -11 -75 -10 -221 l1 -212 75 -22
c41 -12 104 -27 140 -33 64 -12 66 -12 195 31 l130 44 5 210 c4 150 2 213 -6
220 -7 6 -14 19 -16 30 -2 11 -10 19 -16 18 -7 -2 -12 2 -12 7 0 6 4 10 9 10
8 0 9 115 2 153 -3 15 -22 6 -20 -10 3 -30 -1 -43 -11 -43 -5 0 -10 6 -10 14
0 20 -27 28 -34 10 -3 -9 -6 -32 -6 -52 0 -30 -5 -39 -25 -49 -25 -11 -25 -11
-25 42 0 33 -5 55 -12 58 -10 4 -9 8 2 16 14 10 7 15 -13 12 -4 -1 -7 7 -5 16
2 12 -3 18 -15 16 -14 -1 -17 4 -14 18 7 26 3 24 -28 -13z"/>
<path d="M3555 3886 c-13 -10 -25 -11 -37 -5 -13 7 -20 4 -28 -10 -5 -11 -10
-27 -10 -35 0 -9 -5 -16 -11 -16 -5 0 -7 -4 -4 -10 8 -13 45 -13 45 1 0 6 8 8
19 4 21 -6 30 3 47 53 13 35 8 39 -21 18z"/>
<path d="M3464 3001 c-39 -9 -96 -31 -126 -48 -68 -39 -181 -117 -199 -139
-12 -14 -8 -15 35 -9 38 6 58 17 90 48 22 22 69 53 102 69 73 34 211 65 226
50 6 -6 -13 -14 -57 -21 -94 -17 -165 -45 -231 -94 l-56 -42 38 -7 c66 -12 76
-10 69 11 -3 10 0 23 7 28 18 13 91 39 168 58 108 28 150 62 107 89 -37 24
-97 26 -173 7z"/>
<path d="M3118 2848 c-18 -15 -34 -58 -21 -58 5 0 17 16 26 35 18 39 18 41 -5
23z"/>
<path d="M3065 2717 c-139 -58 -233 -126 -288 -211 -19 -28 -8 -36 14 -10 7 9
23 20 36 25 13 5 23 15 23 23 0 14 165 123 258 170 48 24 63 36 45 36 -5 0
-44 -15 -88 -33z"/>
<path d="M1661 2683 c-29 -6 -71 -32 -71 -44 0 -5 15 -16 33 -26 50 -28 275
-26 336 2 l45 21 -34 24 c-31 22 -45 25 -160 26 -69 1 -136 0 -149 -3z"/>
<path d="M3195 2653 c-19 -10 -30 -12 -33 -5 -2 8 -10 8 -27 0 -14 -6 -22 -15
-18 -21 3 -6 1 -7 -5 -3 -13 8 -120 -43 -168 -79 -18 -14 -36 -25 -41 -25 -4
0 -20 -11 -35 -25 -15 -14 -32 -25 -38 -25 -5 0 -10 -7 -10 -15 0 -8 -4 -15
-10 -15 -18 0 -264 81 -277 92 -9 7 -14 6 -19 -6 -11 -29 2 -41 72 -65 38 -12
85 -30 104 -38 19 -9 44 -16 56 -17 12 -1 28 -9 37 -17 8 -9 37 -19 64 -23 39
-5 50 -3 60 11 16 21 0 43 -33 43 -35 0 -41 21 -11 44 14 12 100 59 189 105
143 73 193 102 178 101 -3 -1 -18 -8 -35 -17z m-389 -250 c-10 -10 -19 5 -10
18 6 11 8 11 12 0 2 -7 1 -15 -2 -18z"/>
<path d="M1985 2605 c-34 -17 -60 -20 -180 -20 -77 0 -159 3 -182 8 -38 6 -42
5 -49 -15 -4 -13 -6 -37 -5 -55 1 -17 -2 -41 -8 -52 -8 -14 -8 -20 2 -24 9 -3
9 -10 -3 -31 -14 -26 -13 -29 9 -47 32 -27 80 -38 214 -50 89 -8 144 -8 220 1
110 13 135 20 69 20 -43 0 -56 15 -24 27 28 11 32 25 11 42 -17 13 -21 34 -27
116 l-7 100 -40 -20z"/>
<path d="M1461 2504 c0 -11 9 -29 22 -40 22 -19 22 -19 6 1 -10 11 -19 29 -22
40 -4 19 -5 19 -6 -1z"/>
<path d="M2075 2470 c17 -4 39 -8 50 -8 16 0 15 2 -5 8 -14 4 -36 8 -50 8 -22
0 -22 -1 5 -8z"/>
<path d="M5210 2181 c0 -5 -3 -18 -6 -28 -5 -16 -4 -16 10 1 18 23 20 36 6 36
-5 0 -10 -4 -10 -9z"/>
<path d="M4391 2054 c0 -11 3 -14 6 -6 3 7 2 16 -1 19 -3 4 -6 -2 -5 -13z"/>
<path d="M697 1973 c105 -2 281 -2 390 0 109 1 23 2 -192 2 -214 0 -304 -1
-198 -2z"/>
<path d="M1293 1895 c0 -38 2 -53 4 -32 2 20 2 52 0 70 -2 17 -4 1 -4 -38z"/>
<path d="M1363 1953 c26 -2 67 -2 90 0 23 2 2 3 -48 3 -49 0 -68 -1 -42 -3z"/>
<path d="M1548 1953 c12 -2 32 -2 45 0 12 2 2 4 -23 4 -25 0 -35 -2 -22 -4z"/>
<path d="M2300 1309 c0 -5 5 -7 10 -4 6 3 10 8 10 11 0 2 -4 4 -10 4 -5 0 -10
-5 -10 -11z"/>
</g>
</svg>
